<?xml version="1.0" standalone="no"?>
<!DOCTYPE svg PUBLIC "-//W3C//DTD SVG 20010904//EN"
 "http://www.w3.org/TR/2001/REC-SVG-20010904/DTD/svg10.dtd">
<svg version="1.0" xmlns="http://www.w3.org/2000/svg"
 width="300.000000pt" height="200.000000pt" viewBox="0 0 300.000000 200.000000"
 preserveAspectRatio="xMidYMid meet">
<metadata>
Created by potrace 1.10, written by Peter Selinger 2001-2011
</metadata>
<g transform="translate(0.000000,200.000000) scale(0.100000,-0.100000)"
fill="#000000" stroke="none">
<path d="M590 1527 c-23 -12 -25 -19 -25 -75 0 -42 5 -66 14 -71 9 -6 13 -27
12 -65 -1 -50 -5 -63 -38 -102 -23 -27 -49 -48 -66 -51 -15 -3 -30 -10 -33
-14 -10 -16 -24 -9 -34 17 -9 21 -15 25 -35 20 -14 -4 -25 -2 -25 3 0 5 18 12
40 16 23 4 53 19 71 36 17 16 39 29 49 29 12 0 19 10 22 30 3 17 0 30 -5 30
-6 0 -19 7 -29 17 -10 9 -18 11 -18 6 0 -6 10 -17 21 -25 19 -12 20 -15 5 -27
-13 -11 -17 -10 -26 14 -16 42 -13 64 9 62 11 0 17 -5 15 -9 -3 -4 2 -8 10 -8
9 0 16 4 16 9 0 17 -26 29 -52 24 -23 -4 -27 -9 -22 -29 4 -15 2 -24 -5 -24
-6 0 -11 -4 -11 -10 0 -5 8 -6 17 -3 12 5 15 2 10 -10 -3 -9 -2 -17 3 -17 6 0
10 -7 10 -15 0 -8 -7 -15 -15 -15 -8 0 -15 7 -15 15 0 8 -4 15 -9 15 -15 0
-24 59 -12 74 9 11 6 12 -14 8 -26 -5 -32 -16 -14 -28 6 -3 9 -17 6 -30 -2
-14 1 -24 7 -24 6 0 16 -12 23 -26 11 -23 10 -25 -10 -22 -25 3 -50 49 -50 89
0 24 -2 25 -15 13 -11 -11 -11 -18 -2 -29 6 -8 9 -19 5 -25 -3 -5 -2 -10 3
-10 9 0 36 -50 30 -55 -13 -13 -108 -42 -113 -35 -7 11 46 40 71 40 16 0 16 2
-1 20 -10 11 -18 33 -19 50 -1 27 -2 28 -13 13 -7 -9 -13 -28 -13 -41 0 -20
-4 -23 -27 -20 -23 2 -27 -1 -25 -17 2 -11 4 -32 4 -47 1 -15 5 -25 9 -23 3 3
12 -2 19 -10 10 -12 8 -13 -9 -10 -33 6 -27 -38 10 -77 l31 -33 -7 68 c-3 39
-2 67 4 67 5 0 19 -17 31 -37 21 -36 22 -42 11 -136 -17 -152 -14 -277 8 -339
10 -29 22 -66 26 -82 3 -16 23 -47 44 -68 l39 -38 104 0 c71 0 134 7 199 22
52 12 124 23 160 25 l66 5 22 -35 c19 -30 91 -87 91 -71 0 3 -15 20 -32 39
-18 18 -48 50 -66 71 -29 33 -31 39 -18 52 13 13 20 10 58 -30 46 -47 156
-108 194 -108 28 0 54 10 54 20 0 4 -22 10 -50 13 -90 11 -199 78 -185 115 3
7 -10 39 -29 71 -18 32 -43 82 -54 112 -13 33 -21 45 -21 32 -1 -12 21 -66 49
-120 54 -107 30 -90 -39 27 -45 77 -58 125 -35 134 8 3 13 10 10 15 -3 5 2 8
12 7 9 0 16 5 14 12 -1 8 11 12 37 12 22 0 47 3 57 7 12 5 15 3 9 -6 -6 -10 0
-12 26 -6 27 5 31 4 19 -5 -12 -10 -11 -11 7 -7 11 3 39 1 62 -3 53 -9 44 4
-16 24 -98 34 -215 15 -267 -43 -16 -17 -31 -21 -88 -21 -82 0 -129 -18 -173
-65 l-32 -36 -18 73 c-9 40 -28 100 -41 133 -30 72 -46 178 -34 211 5 13 21
41 35 63 15 21 27 53 27 71 1 32 1 32 14 9 7 -13 13 -30 14 -37 0 -19 50 -90
67 -96 19 -8 32 2 17 12 -19 12 -76 133 -70 148 3 8 1 14 -5 14 -6 0 -8 4 -5
8 3 5 -1 30 -9 57 -20 63 -20 115 -1 115 8 0 18 -4 21 -10 3 -5 1 -10 -4 -10
-18 0 -12 -53 14 -131 26 -76 68 -149 85 -149 15 0 12 67 -4 73 -20 8 -28 47
-9 47 10 0 14 -6 10 -19 -3 -12 1 -22 11 -26 20 -7 29 2 14 17 -7 7 -12 16
-12 22 0 5 3 6 6 3 4 -4 29 5 56 20 33 18 45 30 38 37 -5 5 -10 20 -10 33 0
16 -6 23 -20 23 -11 0 -20 -5 -20 -11 0 -5 4 -7 10 -4 6 3 7 -1 4 -10 -7 -18
-58 -47 -68 -38 -10 10 -7 25 4 18 6 -3 10 0 10 7 0 9 3 9 10 -2 7 -11 10 -11
10 -2 0 7 4 10 10 7 6 -3 7 1 3 10 -3 9 -9 12 -12 7 -3 -5 -17 -8 -30 -7 -21
2 -23 -1 -17 -36 5 -29 3 -37 -6 -34 -7 3 -19 1 -27 -4 -10 -7 -11 -13 -1 -32
11 -23 10 -23 -5 -4 -8 11 -13 26 -10 33 3 8 5 20 5 28 0 8 7 14 15 14 8 0 15
8 15 18 0 14 -2 14 -9 3 -8 -12 -15 -9 -38 15 -15 16 -24 26 -19 22 32 -26 30
30 -2 67 -25 29 -28 29 -62 12z m7 -67 c-2 -33 -7 -63 -12 -68 -4 -4 -4 4 0
17 5 16 4 21 -4 17 -15 -10 -15 66 1 82 19 19 20 16 15 -48z m-75 -397 c9 -38
26 -102 37 -143 12 -41 24 -100 27 -130 5 -51 3 -59 -30 -108 -46 -69 -45 -76
2 -24 46 50 73 53 102 13 11 -17 30 -33 41 -36 20 -7 20 -8 -7 -26 -32 -21
-49 -25 -38 -8 4 8 0 8 -15 0 -12 -7 -26 -9 -31 -6 -6 3 -10 1 -10 -5 0 -7 -7
-10 -15 -6 -8 3 -15 1 -15 -4 0 -19 -55 -9 -83 14 -35 28 -56 104 -58 206 -1
70 -2 72 -11 35 -5 -22 -8 -66 -6 -98 2 -31 0 -57 -4 -57 -8 0 -18 86 -14 125
2 17 7 74 11 128 5 65 12 100 20 104 7 2 16 14 19 26 5 23 41 67 54 67 4 0 15
-30 24 -67z m406 -269 c12 -14 22 -33 22 -42 -1 -12 -6 -8 -16 11 -8 15 -17
27 -20 27 -2 0 0 -9 6 -19 20 -39 19 -40 -83 -77 -26 -9 -46 -19 -43 -21 2 -2
21 3 41 11 51 22 68 19 25 -3 -64 -34 -112 -36 -169 -7 -28 15 -51 31 -51 36
0 12 70 80 82 80 5 0 6 4 3 10 -4 6 1 7 11 3 10 -3 15 -2 12 3 -4 5 15 8 43 6
34 -3 49 0 49 8 0 21 63 3 88 -26z m50 -128 c-8 -6 -17 -19 -21 -29 -7 -19
-93 -77 -116 -78 -12 0 -11 -3 4 -10 16 -8 14 -8 -11 -5 -17 3 -35 1 -40 -3
-5 -5 -47 -11 -94 -14 l-85 -6 40 21 c22 11 60 33 85 48 25 15 60 30 79 34 54
10 151 57 144 70 -4 6 1 4 11 -3 15 -13 16 -17 4 -25z m-9 -62 c-26 -28 -70
-54 -91 -54 -7 1 1 7 17 14 17 8 43 26 59 40 38 34 46 33 15 0z m-319 -19 c0
-2 -10 -10 -22 -16 -29 -16 -108 -28 -108 -17 0 4 11 8 24 8 13 0 39 7 57 15
36 15 49 18 49 10z m13 -92 c-24 -2 -62 -2 -85 0 -24 2 -5 4 42 4 47 0 66 -2
43 -4z"/>
<path d="M494 799 c12 -61 23 -102 25 -93 4 21 -28 185 -39 197 -3 4 3 -43 14
-104z"/>
<path d="M2348 1513 c-14 -16 -23 -34 -21 -41 3 -7 1 -12 -4 -11 -23 4 -33 -3
-32 -23 0 -22 1 -22 10 2 8 19 12 21 19 10 6 -9 13 -11 22 -4 8 5 6 2 -4 -8
-10 -9 -18 -22 -18 -28 0 -7 -8 -10 -20 -7 -13 3 -20 0 -20 -9 0 -7 6 -11 14
-8 9 3 15 -4 19 -21 6 -32 -2 -65 -15 -65 -5 0 -4 8 2 19 5 11 10 22 10 24 0
10 -32 17 -43 10 -18 -11 -38 -12 -31 -2 3 5 9 7 14 4 10 -6 20 19 20 51 0 15
-4 23 -10 19 -6 -4 -18 -1 -26 6 -18 15 -27 8 -18 -15 5 -14 9 -15 15 -4 6 10
9 8 9 -7 0 -17 2 -17 10 -5 6 9 10 10 10 3 0 -22 -19 -24 -38 -5 -17 17 -20
18 -31 3 -9 -13 -9 -12 -1 6 5 12 10 26 10 32 0 18 -30 12 -36 -6 -3 -10 -10
-26 -15 -36 -8 -15 -2 -21 38 -39 26 -12 51 -21 56 -20 11 3 9 -16 -3 -23 -15
-9 -2 -25 14 -19 8 3 12 14 9 25 -4 13 0 19 11 19 22 0 20 -16 -4 -40 -20 -20
-28 -80 -12 -80 5 0 16 8 24 18 51 58 111 262 77 262 -5 0 -7 5 -4 10 3 6 13
10 21 10 17 0 19 -65 3 -107 -6 -15 -12 -45 -14 -67 -4 -41 -46 -136 -72 -162
-22 -22 -8 -29 21 -10 14 8 35 38 48 66 23 51 38 64 38 33 0 -9 15 -39 32 -67
29 -44 33 -58 30 -110 -1 -37 -17 -101 -42 -174 -22 -63 -40 -128 -40 -143 0
-40 -15 -44 -39 -10 -33 46 -95 71 -178 71 -58 0 -73 3 -89 21 -52 58 -169 77
-267 43 -60 -20 -69 -33 -16 -24 23 4 51 6 62 3 18 -4 19 -3 7 7 -12 9 -8 10
19 5 26 -6 32 -4 26 6 -6 9 -3 11 9 6 10 -4 36 -7 57 -7 22 0 38 -4 35 -8 -3
-5 8 -16 25 -26 24 -14 28 -22 23 -44 -10 -44 -52 -122 -112 -205 -63 -87
-118 -123 -210 -134 -42 -5 -50 -8 -41 -19 6 -8 23 -14 38 -14 43 0 147 56
197 105 40 40 48 45 61 33 14 -15 -2 -40 -86 -125 -18 -18 -31 -37 -28 -40 3
-3 13 2 22 11 9 9 21 16 26 16 5 0 21 18 36 41 l27 41 70 -5 c39 -3 109 -15
156 -26 58 -14 119 -21 192 -21 l108 0 39 35 c26 24 41 47 46 72 4 21 13 49
20 64 28 54 35 147 21 304 -13 147 -13 151 8 187 21 38 54 54 41 21 -13 -34
-18 -113 -8 -113 14 0 43 45 53 81 7 24 5 27 -11 26 -10 -1 -19 -6 -19 -11 0
-5 -3 -6 -6 -3 -9 8 16 38 26 32 4 -3 8 5 9 18 1 12 2 33 4 47 2 22 -1 25 -25
22 -25 -3 -28 0 -28 26 0 28 -26 62 -47 62 -6 0 -14 6 -17 13 -3 6 -3 2 0 -10
9 -40 -40 -122 -61 -101 -9 8 8 48 20 48 8 0 11 8 8 19 -3 10 0 28 6 40 10 18
9 21 -7 21 -15 0 -18 -6 -14 -28 2 -18 -2 -35 -12 -45 -9 -8 -16 -20 -16 -26
0 -6 -7 -11 -15 -11 -8 0 -15 5 -15 11 0 19 21 50 31 44 5 -4 9 -1 9 4 0 6 -5
11 -10 11 -6 0 -8 10 -4 24 5 20 1 24 -22 29 -16 3 -36 -1 -46 -7 -20 -15 -14
-26 15 -26 16 0 17 -3 7 -15 -7 -8 -19 -15 -26 -15 -10 0 -11 -6 -4 -24 5 -13
6 -27 3 -30 -4 -3 3 -6 14 -6 12 0 35 -13 52 -29 18 -17 48 -32 71 -36 46 -8
54 -21 13 -20 -22 0 -29 -5 -31 -22 -3 -23 -26 -31 -36 -14 -3 4 -18 11 -33
15 -43 9 -101 84 -103 132 -3 61 -1 76 10 69 15 -9 12 14 -4 30 -18 18 -21
128 -3 123 7 -3 13 -25 15 -52 2 -32 0 -46 -7 -41 -6 3 -11 1 -11 -4 0 -6 7
-11 15 -11 19 0 21 93 3 108 -31 24 -54 22 -80 -5z m169 -170 c-8 -45 -24 -64
-33 -38 -5 11 -1 21 10 27 11 6 15 16 11 29 -4 11 -2 19 6 19 8 0 10 -12 6
-37z m143 -32 c0 -10 -9 -30 -20 -43 l-20 -26 28 -5 c33 -7 69 -32 56 -39 -5
-3 -32 3 -61 14 -49 19 -52 22 -41 42 7 11 11 24 10 29 -1 4 3 7 8 7 6 0 9 3
9 8 -3 20 2 32 16 32 8 0 15 -8 15 -19z m-115 -227 c11 -21 25 -43 32 -49 18
-15 39 -271 26 -320 -11 -39 -11 -38 -13 35 -3 118 -17 142 -21 35 -2 -49 -2
-103 -2 -119 1 -21 -1 -25 -8 -15 -7 11 -9 11 -9 -4 0 -41 -96 -98 -115 -67
-3 5 -12 7 -20 3 -8 -3 -15 -1 -15 4 0 6 -14 9 -32 8 -33 -2 -81 21 -85 42 -1
6 5 9 15 7 20 -5 33 3 48 31 20 35 52 30 95 -15 21 -22 39 -38 39 -35 0 3 -16
30 -36 60 -34 51 -36 58 -30 107 4 29 16 85 28 123 11 39 27 97 35 130 8 33
17 66 19 73 7 22 28 8 49 -34z m-385 -265 c0 -7 18 -10 49 -7 28 2 47 -1 43
-6 -3 -5 2 -6 12 -3 9 4 15 3 12 -1 -2 -4 11 -18 30 -31 39 -27 60 -59 47 -71
-19 -18 -89 -50 -110 -50 -27 0 -136 40 -129 47 3 3 24 -2 46 -11 23 -9 39
-12 35 -6 -3 5 -30 17 -60 26 -63 18 -69 23 -55 58 13 34 5 33 -15 -1 -15 -27
-16 -27 -9 -3 3 14 11 31 17 39 22 26 87 41 87 20z m-118 -128 c-10 -6 9 -18
61 -40 42 -17 84 -31 94 -31 10 0 30 -8 43 -17 14 -10 52 -32 85 -50 l60 -32
-90 6 c-49 3 -93 10 -96 15 -3 5 -13 6 -21 3 -38 -15 -158 44 -158 77 0 6 18
-6 40 -26 22 -20 46 -36 53 -36 6 0 23 -3 37 -6 17 -3 15 0 -10 11 -48 22
-100 63 -100 80 0 7 -5 15 -12 17 -15 5 -3 38 14 38 10 0 10 -2 0 -9z m391
-124 c26 -7 47 -15 47 -18 0 -9 -85 8 -110 21 -25 13 -26 25 -2 15 9 -4 38
-12 65 -18z m-10 -74 c-23 -2 -64 -2 -90 0 -26 2 -7 3 42 3 50 0 71 -1 48 -3z"/>
<path d="M2516 893 c-12 -39 -36 -166 -35 -186 0 -12 11 28 24 88 20 100 25
144 11 98z"/>
<path d="M162 1364 c-19 -13 -23 -24 -21 -67 1 -29 6 -59 11 -67 4 -8 17 -39
28 -68 20 -52 20 -53 0 -42 -12 6 -17 16 -13 26 5 14 3 15 -15 5 -24 -13 -35
-2 -26 24 6 16 5 16 -25 1 -17 -9 -31 -19 -31 -22 0 -3 5 -2 11 2 7 4 9 0 5
-13 -10 -30 15 -56 47 -48 15 4 24 11 22 16 -3 4 -13 6 -23 3 -16 -5 -16 -5 0
6 24 15 48 -2 83 -57 34 -55 60 -68 100 -53 29 12 29 12 8 21 -25 9 -89 100
-98 141 -4 16 -11 26 -15 23 -5 -3 -16 21 -26 52 -9 32 -20 65 -25 75 -5 11
-3 20 6 28 13 11 15 6 16 -26 l1 -39 8 38 c9 48 17 55 37 34 16 -16 16 -17 0
-17 -13 0 -17 -9 -17 -34 0 -40 17 -57 23 -24 2 13 2 3 0 -22 -2 -25 0 -56 6
-70 10 -26 14 -15 11 32 -1 15 2 33 7 40 11 18 11 57 0 55 -5 -1 -12 4 -15 12
-3 9 0 11 9 6 8 -5 3 4 -10 18 -28 31 -47 34 -79 11z m106 -299 c37 -34 37
-34 11 -35 -14 0 -34 9 -44 20 -17 19 -17 20 1 20 15 0 16 2 4 9 -8 6 -17 8
-21 5 -4 -2 -10 0 -14 6 -15 24 29 7 63 -25z"/>
<path d="M2764 1358 l-19 -21 27 18 c31 19 34 16 41 -45 3 -32 4 -31 5 9 2 35
5 41 16 32 11 -9 11 -19 -1 -59 -24 -76 -35 -102 -42 -98 -4 3 -14 -16 -24
-42 -17 -48 -71 -122 -88 -122 -5 0 -14 10 -19 23 -5 12 -9 15 -9 7 -1 -33 46
-65 79 -55 26 8 72 69 75 98 3 29 38 127 45 127 3 0 7 27 8 59 3 52 0 61 -20
75 -31 22 -51 20 -74 -6z m11 -273 c-22 -10 -25 -14 -11 -14 18 -1 18 -2 1
-21 -10 -11 -30 -20 -44 -20 -26 1 -26 1 11 35 21 19 46 35 55 35 12 -1 7 -6
-12 -15z"/>
<path d="M2751 1314 c-23 -30 -26 -40 -11 -49 6 -3 10 -27 11 -53 0 -42 1 -44
10 -22 6 14 8 48 5 75 -6 49 -5 49 8 20 l14 -30 0 43 c0 49 -8 52 -37 16z"/>
<path d="M694 1235 c30 -57 44 -69 61 -55 8 7 14 26 13 44 l-1 31 -4 -32 c-2
-18 -8 -33 -13 -33 -5 0 -23 17 -40 38 -29 33 -30 34 -16 7z"/>
<path d="M2232 1224 c-1 -18 5 -37 13 -44 13 -11 19 -8 40 16 34 39 32 54 -3
21 -36 -34 -40 -34 -45 6 l-4 32 -1 -31z"/>
<path d="M2841 1171 c-7 -12 -9 -26 -6 -31 4 -6 -2 -13 -11 -17 -14 -5 -11 -9
17 -19 51 -18 57 -17 75 18 15 30 15 32 -2 45 -14 10 -19 10 -26 0 -4 -6 -8
-16 -8 -22 0 -5 5 -3 10 5 8 13 10 12 10 -2 0 -21 -7 -22 -39 -4 -15 8 -20 16
-12 20 6 4 11 1 11 -6 0 -8 5 -6 11 5 6 10 8 21 5 24 -3 4 -6 0 -6 -8 0 -12
-2 -12 -9 0 -7 11 -11 9 -20 -8z"/>
<path d="M1997 775 c-10 -27 -33 -76 -52 -109 -20 -32 -34 -63 -32 -69 2 -6
27 37 56 95 30 58 52 111 49 119 -3 8 -12 -8 -21 -36z"/>
</g>
</svg>
